<?xml version="1.0" encoding="UTF-8"?>
<!DOCTYPE svg PUBLIC "-//W3C//DTD SVG 1.1//EN" "http://www.w3.org/Graphics/SVG/1.1/DTD/svg11.dtd">
<!-- Creator: CorelDRAW 2020 (64-Bit Оценочная версия) -->
<svg xmlns="http://www.w3.org/2000/svg" xml:space="preserve" width="163px" height="91px" version="1.1" style="shape-rendering:geometricPrecision; text-rendering:geometricPrecision; image-rendering:optimizeQuality; fill-rule:evenodd; clip-rule:evenodd"
viewBox="0 0 162.01 89.99"
 xmlns:xlink="http://www.w3.org/1999/xlink"
 xmlns:xodm="http://www.corel.com/coreldraw/odm/2003">
 <defs>
  <style type="text/css">
   <![CDATA[
    .fil1 {fill:#00544B}
    .fil0 {fill:#AB0917}
    .fil2 {fill:#00534A;fill-rule:nonzero}
   ]]>
  </style>
 </defs>
 <g id="Слой_x0020_1">
  <metadata id="CorelCorpID_0Corel-Layer"/>
  <g id="_1703377203264">
   <path class="fil0" d="M4.88 70.98l-0.95 0 0 -12.6c3.51,0 8.27,-0.43 10.8,1.93 3.69,3.44 1.9,9.2 -2.1,10.16 -1.95,0.46 -5.27,0.51 -7.75,0.51zm2.44 -15.58l-3.39 0 0 -11.24c2.59,0 6.5,-0.32 8.51,0.56 2.63,1.17 3.98,4.56 2.03,7.68 -1.4,2.24 -4.36,3 -7.15,3zm-7.32 18.7l10.7 0c2.65,0 5.47,-1.3 6.99,-2.5 3.83,-3 3.95,-8.9 0.97,-12.1 -1.01,-1.08 -1.85,-1.94 -3.3,-2.39 -0.5,-0.15 -1.19,-0.19 -1.54,-0.35l0 -0.54c0.65,-0.06 1.72,-0.54 2.16,-0.82 1.9,-1.18 3.26,-3.85 3.26,-6.23 0,-2.76 -2.08,-6.32 -4.76,-7.16 -0.95,-0.3 -2.29,-0.56 -3.51,-0.56l-10.97 0 0 32.65z"/>
   <path class="fil0" d="M89.27 53.1l0 -2.03 -3.52 0c0,7.32 0.24,14.75 0.12,22.09 -0.02,1.37 -0.4,1.07 3.8,1.07l0 -18.42c0.38,-0.09 2.72,-1.28 4.07,-1.77 1.01,-0.36 3.67,-0.21 4.55,0.87 0.57,0.7 0.87,1.98 0.87,3.2l0 16.01c0.43,0 3.33,0 3.74,0 0,-5.96 -0.04,-12.77 -0.09,-18.85 2.74,-1.32 8.22,-2.78 9.03,1.67 0.18,1 0.06,2.33 0.13,3.4 0.05,1.05 0.05,12.17 0.05,13.76l3.66 0 0 -14.5c0,-3.45 -0.71,-6.49 -3.5,-8.01 -3.09,-1.69 -7.12,-0.35 -9.9,1.25 -0.6,0.35 -0.6,0.22 -0.96,0.4 -0.27,-0.41 -0.61,-0.7 -0.98,-1.06 -0.47,-0.47 -0.67,-0.59 -1.32,-0.85 -1.41,-0.57 -3.8,-0.64 -5.33,-0.18 -0.34,0.1 -0.52,0.18 -0.79,0.3 -1.02,0.47 -2.75,1.58 -3.63,1.65z"/>
   <path class="fil0" d="M130.31 53.64c0.71,0 1.96,0.24 2.52,0.46 2.42,0.96 3.17,3.22 3.17,6.04l-11.38 -0.13c0,-1.66 0.88,-3.36 1.66,-4.31 0.63,-0.77 0.66,-0.9 1.59,-1.38 0.64,-0.33 1.48,-0.68 2.44,-0.68zm-9.48 7.86c0,2.94 -0.11,3.69 0.86,6.59 1.92,5.73 9.55,7.81 14.83,4.63 1.29,-0.78 2.6,-1.88 3.41,-3.09 -0.37,-0.25 -2.06,-1.69 -2.3,-1.9 -0.28,0.3 -1,0.95 -1.32,1.25 -1.85,1.79 -5.64,2.96 -8.06,1.49 -1.65,-1.01 -2.27,-1.8 -3.04,-3.6 -0.61,-1.41 -0.59,-2.64 -0.59,-4.15l9.35 0c2.02,0 3.54,-0.14 5.55,-0.14 0,-3.65 0.05,-6.01 -2.16,-8.94 -0.38,-0.5 -0.63,-0.65 -1.12,-1.05 -0.42,-0.35 -0.83,-0.58 -1.34,-0.83 -2.02,-0.98 -3.7,-0.83 -5.94,-0.83 -4.7,0 -8.13,5.81 -8.13,10.57z"/>
   <path class="fil0" d="M48.09 71.25l-1.09 0c-2.02,0 -3.97,-1.61 -4.82,-2.9 -3.68,-5.54 -1.62,-14.44 5.23,-14.44 1.74,0 3.43,0.76 4.47,2.03 0.79,0.96 1.16,1.75 1.58,3.03 0.9,2.76 0.65,6.64 -0.82,9.25 -0.78,1.38 -2.48,3.03 -4.55,3.03zm-11.24 -8.13c0,3.37 1.08,5.57 2.84,7.86 1.63,2.13 4.96,3.25 7.59,3.25 3.98,0 5.86,-1.21 7.75,-3.35 3.8,-4.31 3.99,-11.48 0.24,-16.43 -3.45,-4.54 -11.32,-4.99 -15.6,0.25 -1.77,2.17 -2.82,5.57 -2.82,8.42z"/>
   <path class="fil0" d="M64.75 62.58c0,-2.43 0.39,-4.33 1.68,-6.04 0.59,-0.78 1.01,-1.19 1.85,-1.68 1.83,-1.06 4.98,-1.24 6.79,0.11 4.13,3.09 3.93,10.5 1.54,13.79 -1.11,1.53 -2.59,2.63 -4.68,2.63 -2.07,0 -4.08,-1.19 -5.25,-2.75 -1.05,-1.41 -1.93,-3.64 -1.93,-6.06zm-3.52 0.14c0,3.4 0.72,5.94 2.87,8.37 0.96,1.08 1.59,1.52 2.95,2.2 2.39,1.18 7.11,1.39 9.48,-0.01 3.22,-1.9 5.69,-5.86 5.69,-9.75l0 -1.9c0,-4.05 -2.48,-8.04 -5.95,-9.75 -3.88,-1.92 -8.07,-0.96 -11.33,1.82 -2.22,1.89 -3.71,5.94 -3.71,9.02z"/>
   <path class="fil0" d="M150.9 62.31l-3.93 5.96c-0.65,0.98 -1.27,1.91 -1.95,2.93 -0.28,0.41 -1.86,2.61 -1.94,2.9 0.76,-0.03 2.85,0 3.89,0 1.14,-1.7 2.93,-4.92 4.12,-6.86 0.34,-0.55 1.17,-1.77 1.3,-2.36l0.27 0c0.21,0.89 4.66,7.77 5.42,9.22l3.93 0 -7.59 -11.92c0.1,-0.12 0.13,-0.15 0.25,-0.3l1.62 -2.44c1.06,-1.6 4.95,-7.17 5.58,-8.37l-3.93 0c-0.2,0.86 -4.95,7.8 -5.14,8.53l-0.27 0c-0.17,-0.73 -0.77,-1.47 -1.13,-2.12l-1.27 -2.12c-0.58,-1.05 -2.24,-3.38 -2.48,-4.29l-4.06 0 7.31 11.24z"/>
   <path class="fil1" d="M39.42 28.58c0.48,-0.11 4.76,-3.03 6.15,-3.6 3.08,-1.26 3.37,-1.59 7,-2.75 12.22,-3.88 25.52,-3.17 37.72,0.31 2.79,0.8 7.46,2.8 10.04,4.19 2.65,1.43 7.2,4.41 9.43,6.56l1.83 1.69c0.34,0.35 0.59,0.66 0.98,0.92 -0.34,-1.44 -4.16,-4.94 -5.25,-6 -0.33,-0.32 -0.53,-0.43 -0.88,-0.74 -1.81,-1.62 -5.65,-4.1 -7.73,-5.14 -0.75,-0.37 -1.34,-0.66 -2.08,-1.04 -4.72,-2.37 -12.38,-4.52 -17.65,-5.11 -1.73,-0.2 -3.93,-0.54 -5.83,-0.53 -1.1,0 -2.27,-0.04 -3.15,-0.09 -3.75,-0.21 -10.66,0.89 -14.25,1.79 -1.65,0.42 -3.33,0.98 -4.8,1.57 -2.91,1.17 -7.01,3.26 -9.2,5.43 -0.36,0.37 -0.51,0.43 -0.87,0.75 -0.38,0.32 -0.47,0.51 -0.76,0.86 -0.32,0.4 -0.57,0.43 -0.7,0.93z"/>
   <path class="fil0" d="M26.96 68.14c0,6.24 2.57,7.55 7.58,5.14 -0.16,-0.71 -0.37,-1.32 -0.54,-2.03 -1.19,0 -2.67,0.37 -3.12,-0.53 -0.44,-0.89 -0.13,-2.34 -0.13,-3.53l0 -26.01 -3.79 0 0 26.96z"/>
   <path class="fil1" d="M94.41 24.79c0.04,1.63 1.88,4.84 2.77,6.18 1.1,1.65 2.79,3.39 4.34,4.6 2.57,2.01 5.73,3.61 9.07,4.34 0.56,0.12 3.48,0.75 3.74,0.48 0.19,-0.18 -0.04,-0.28 -0.29,-0.53l-10.26 -8.72 -6.48 -4.76c-0.91,-0.68 -1.99,-1.59 -2.89,-1.59z"/>
   <path class="fil1" d="M94.28 15.85c0,0.9 0.15,5.15 1.22,5.15 0.48,0 0.79,-1.62 1.13,-2.66 0.35,-1.04 0.71,-1.98 1.02,-2.91 1.3,-3.92 4.58,-10.59 6.98,-14.16 0.28,-0.42 0.63,-0.79 0.76,-1.27 -0.99,0.23 -3.01,2.1 -3.87,2.77 -3.08,2.38 -7.24,8.43 -7.24,13.08z"/>
   <path class="fil0" d="M99.16 17.61l0 0.68c0,4.63 3.45,7.4 7.23,8.34 3.54,0.89 7.42,0.44 11.44,3.07 1.54,1.01 0.12,-1.12 -4.14,-2.78 -1.03,-0.41 -1.98,-0.67 -3.13,-0.94 -2.82,-0.67 -6.45,-0.43 -8.54,-3.52 -1.97,-2.92 -0.68,-6.07 -2.05,-6.07 -0.46,0 -0.81,0.76 -0.81,1.22z"/>
   <path class="fil0" d="M104.57 19.1c-1.89,0 -1.81,1.76 0.28,1.76 1.5,0 2.41,0.01 3.79,-0.67 0.92,-0.46 1.22,-0.61 1.93,-1.33 1.02,-1.02 0.65,-0.58 1.46,-1.79 1.51,-2.27 2.46,-6.57 5.33,-7.81 1.04,-0.44 1.71,-0.34 2.79,-0.59 -0.31,-0.46 -0.45,-0.27 -2.17,-0.27 -4.08,0 -5.29,5.03 -7.23,7.94 -1.33,2.01 -2.52,2.59 -4.75,2.84 -0.56,0.07 -0.8,-0.08 -1.43,-0.08z"/>
   <path class="fil0" d="M119.34 11.65c0.46,-0.04 0.53,-0.17 0.84,-0.38 0.3,-0.2 0.48,-0.28 0.78,-0.43 2.83,-1.42 2.44,-0.34 3.21,1.13 1.67,3.16 6.12,-0.43 4.19,9.24 -0.13,0.65 -0.23,1.05 -0.38,1.66 -0.14,0.55 -0.38,1.09 -0.38,1.78 1.06,-0.77 4.67,-9.82 1.04,-11.74 -0.72,-0.39 -2,-1.02 -2.49,-1.57 -0.9,-0.98 -1.13,-3.92 -4.65,-1.59 -0.73,0.49 -1.68,1.19 -2.16,1.9z"/>
   <path class="fil0" d="M118.39 15.44c0,3.68 0.12,8 2.54,10.74 1.16,1.32 3.67,1.87 4.33,-0.22 0.09,-0.32 0.23,-0.74 0.07,-0.9 -0.36,-0.36 0,0.54 -1.93,0.54 -2.71,0 -3.18,-6.33 -3.25,-8.66 -0.04,-1.21 0.28,-3.12 -0.95,-3.12 -0.66,0 -0.81,0.93 -0.81,1.62z"/>
   <path class="fil0" d="M122.32 21.81c0,-1.06 -0.72,-6.5 1.35,-6.5 0.7,0 1.67,1.15 1.98,1.68 0.67,1.11 1.37,4.25 -0.08,5.23 -1.22,-0.65 -1.52,-1.81 -1.22,-3.12 0.37,-0.18 0.65,-0.27 1.22,-0.27l0 -0.27c-1.44,-0.12 -2.3,-1.15 -2.3,1.89 0,2.32 2.32,4.56 3.66,2.17 1.17,-2.08 0.3,-7.27 -2.48,-8.63 -3.59,-1.75 -2.9,4.41 -2.63,6.29 0.08,0.58 0.07,1.21 0.5,1.53z"/>
   <path class="fil0" d="M115.68 20.05c0,2.56 0.33,4.41 1.82,6.31 1.34,1.71 2.51,2.15 4.55,2.63 -0.15,-0.58 -0.95,-0.7 -2.17,-1.62 -1.57,-1.19 -2.16,-3.2 -2.43,-5.16 -0.13,-0.92 0.08,-2.97 -0.96,-2.97 -0.32,0 -0.81,0.48 -0.81,0.81z"/>
   <path class="fil0" d="M100.38 13.28c0,0.49 0.37,1.08 0.81,1.08 0.26,0 1.26,-1.01 1.89,-1.49 2.17,-1.67 4.83,-2.3 7.86,-2.3l0 -0.28c-3.53,-0.82 -6.37,-0.59 -9.23,1.74 -0.18,0.15 -1.33,1.13 -1.33,1.25z"/>
   <path class="fil2" d="M6.19 86.99l1.09 0.28c-0.23,0.88 -0.64,1.56 -1.23,2.02 -0.59,0.47 -1.31,0.7 -2.16,0.7 -0.88,0 -1.6,-0.17 -2.15,-0.53 -0.55,-0.36 -0.97,-0.88 -1.26,-1.56 -0.29,-0.68 -0.43,-1.41 -0.43,-2.19 0,-0.85 0.16,-1.59 0.49,-2.22 0.32,-0.64 0.78,-1.12 1.39,-1.45 0.6,-0.33 1.26,-0.49 1.98,-0.49 0.82,0 1.5,0.21 2.06,0.62 0.56,0.42 0.95,1 1.17,1.76l-1.07 0.25c-0.18,-0.6 -0.46,-1.03 -0.82,-1.3 -0.36,-0.27 -0.81,-0.41 -1.36,-0.41 -0.63,0 -1.15,0.15 -1.58,0.46 -0.42,0.3 -0.71,0.7 -0.88,1.21 -0.18,0.5 -0.26,1.03 -0.26,1.57 0,0.69 0.1,1.3 0.3,1.81 0.2,0.52 0.52,0.91 0.94,1.17 0.43,0.25 0.89,0.38 1.39,0.38 0.61,0 1.12,-0.17 1.54,-0.52 0.42,-0.35 0.7,-0.87 0.85,-1.56zm1.53 2.87l3.14 -8.17 1.19 0 3.33 8.17 -1.23 0 -0.95 -2.48 -3.44 0 -0.89 2.48 -1.15 0zm2.35 -3.36l2.79 0 -0.85 -2.26c-0.26,-0.69 -0.45,-1.26 -0.59,-1.71 -0.11,0.53 -0.26,1.06 -0.45,1.57l-0.9 2.4zm6.16 3.36l0 -8.17 1.11 0 4.3 6.41 0 -6.41 1.04 0 0 8.17 -1.11 0 -4.3 -6.42 0 6.42 -1.04 0zm7.37 0l3.14 -8.17 1.2 0 3.33 8.17 -1.23 0 -0.95 -2.48 -3.45 0 -0.89 2.48 -1.15 0zm2.36 -3.36l2.79 0 -0.85 -2.26c-0.26,-0.69 -0.46,-1.26 -0.59,-1.71 -0.11,0.53 -0.26,1.06 -0.45,1.57l-0.9 2.4zm6.17 3.36l0 -8.17 2.82 0c0.64,0 1.12,0.03 1.46,0.11 0.47,0.11 0.87,0.31 1.2,0.59 0.43,0.36 0.75,0.83 0.97,1.39 0.21,0.57 0.32,1.22 0.32,1.95 0,0.62 -0.07,1.17 -0.22,1.65 -0.14,0.48 -0.33,0.87 -0.56,1.19 -0.23,0.31 -0.47,0.56 -0.74,0.74 -0.27,0.18 -0.6,0.32 -0.98,0.41 -0.38,0.09 -0.82,0.14 -1.32,0.14l-2.95 0zm1.08 -0.96l1.75 0c0.54,0 0.96,-0.05 1.27,-0.15 0.31,-0.1 0.55,-0.24 0.73,-0.43 0.26,-0.25 0.46,-0.6 0.6,-1.03 0.15,-0.44 0.22,-0.96 0.22,-1.58 0,-0.85 -0.14,-1.51 -0.42,-1.97 -0.28,-0.46 -0.62,-0.77 -1.03,-0.93 -0.29,-0.11 -0.75,-0.16 -1.4,-0.16l-1.72 0 0 6.25zm6.28 0.96l3.14 -8.17 1.19 0 3.34 8.17 -1.24 0 -0.95 -2.48 -3.44 0 -0.89 2.48 -1.15 0zm2.36 -3.36l2.79 0 -0.86 -2.26c-0.26,-0.69 -0.45,-1.26 -0.59,-1.71 -0.11,0.53 -0.26,1.06 -0.45,1.57l-0.89 2.4zm5.14 -3.73l0 -1.16 1.08 0 0 0.92c0,0.5 -0.06,0.85 -0.17,1.07 -0.17,0.3 -0.41,0.53 -0.76,0.68l-0.24 -0.4c0.2,-0.08 0.35,-0.21 0.45,-0.38 0.1,-0.18 0.16,-0.42 0.17,-0.73l-0.53 0zm2.36 4.46l1.02 -0.09c0.05,0.41 0.16,0.75 0.34,1.01 0.17,0.27 0.45,0.48 0.82,0.64 0.37,0.16 0.79,0.25 1.26,0.25 0.41,0 0.77,-0.07 1.09,-0.19 0.32,-0.12 0.55,-0.29 0.71,-0.51 0.15,-0.21 0.23,-0.44 0.23,-0.7 0,-0.25 -0.08,-0.47 -0.23,-0.67 -0.14,-0.19 -0.39,-0.35 -0.73,-0.48 -0.22,-0.08 -0.71,-0.21 -1.46,-0.39 -0.75,-0.19 -1.28,-0.35 -1.58,-0.51 -0.39,-0.21 -0.68,-0.46 -0.87,-0.77 -0.19,-0.3 -0.29,-0.64 -0.29,-1.01 0,-0.42 0.12,-0.81 0.35,-1.16 0.24,-0.36 0.58,-0.63 1.03,-0.82 0.45,-0.19 0.95,-0.28 1.5,-0.28 0.61,0 1.14,0.1 1.61,0.29 0.46,0.2 0.82,0.48 1.07,0.87 0.25,0.37 0.38,0.8 0.4,1.28l-1.04 0.08c-0.06,-0.51 -0.25,-0.9 -0.57,-1.17 -0.32,-0.26 -0.8,-0.39 -1.43,-0.39 -0.65,0 -1.13,0.12 -1.43,0.36 -0.3,0.24 -0.45,0.53 -0.45,0.87 0,0.29 0.11,0.53 0.32,0.72 0.21,0.19 0.75,0.38 1.63,0.58 0.88,0.2 1.49,0.37 1.82,0.52 0.47,0.22 0.82,0.5 1.05,0.83 0.23,0.34 0.34,0.73 0.34,1.16 0,0.44 -0.12,0.85 -0.38,1.23 -0.24,0.38 -0.6,0.68 -1.07,0.9 -0.46,0.21 -0.99,0.31 -1.57,0.31 -0.74,0 -1.36,-0.1 -1.86,-0.32 -0.5,-0.21 -0.89,-0.54 -1.18,-0.97 -0.28,-0.43 -0.43,-0.92 -0.45,-1.47zm10.83 -1.35c0,-1.35 0.37,-2.41 1.09,-3.18 0.73,-0.77 1.68,-1.15 2.83,-1.15 0.76,0 1.44,0.18 2.05,0.54 0.6,0.36 1.06,0.86 1.38,1.51 0.32,0.64 0.48,1.37 0.48,2.19 0,0.82 -0.17,1.57 -0.5,2.22 -0.34,0.65 -0.81,1.15 -1.43,1.48 -0.61,0.34 -1.27,0.5 -1.99,0.5 -0.77,0 -1.45,-0.18 -2.06,-0.55 -0.61,-0.37 -1.07,-0.88 -1.38,-1.52 -0.31,-0.64 -0.47,-1.32 -0.47,-2.04zm1.12 0.02c0,0.98 0.27,1.76 0.79,2.32 0.53,0.57 1.2,0.85 2,0.85 0.81,0 1.48,-0.28 2.01,-0.86 0.53,-0.57 0.79,-1.38 0.79,-2.43 0,-0.66 -0.11,-1.24 -0.34,-1.73 -0.22,-0.5 -0.55,-0.88 -0.98,-1.16 -0.44,-0.27 -0.92,-0.4 -1.46,-0.4 -0.77,0 -1.43,0.26 -1.98,0.78 -0.55,0.53 -0.83,1.4 -0.83,2.63zm8.16 3.96l0 -8.17 5.53 0 0 0.96 -4.44 0 0 2.54 3.84 0 0 0.96 -3.84 0 0 3.71 -1.09 0zm6.99 0l0 -8.17 5.52 0 0 0.96 -4.44 0 0 2.54 3.85 0 0 0.96 -3.85 0 0 3.71 -1.08 0zm7.11 0l0 -8.17 1.08 0 0 8.17 -1.08 0zm8.82 -2.87l1.09 0.28c-0.23,0.88 -0.64,1.56 -1.22,2.02 -0.59,0.47 -1.31,0.7 -2.16,0.7 -0.89,0 -1.6,-0.17 -2.15,-0.53 -0.56,-0.36 -0.98,-0.88 -1.26,-1.56 -0.29,-0.68 -0.44,-1.41 -0.44,-2.19 0,-0.85 0.16,-1.59 0.49,-2.22 0.33,-0.64 0.79,-1.12 1.39,-1.45 0.6,-0.33 1.26,-0.49 1.98,-0.49 0.82,0 1.51,0.21 2.07,0.62 0.55,0.42 0.94,1 1.16,1.76l-1.06 0.25c-0.19,-0.6 -0.46,-1.03 -0.83,-1.3 -0.36,-0.27 -0.81,-0.41 -1.36,-0.41 -0.62,0 -1.15,0.15 -1.57,0.46 -0.42,0.3 -0.72,0.7 -0.89,1.21 -0.17,0.5 -0.26,1.03 -0.26,1.57 0,0.69 0.1,1.3 0.31,1.81 0.2,0.52 0.51,0.91 0.94,1.17 0.43,0.25 0.89,0.38 1.39,0.38 0.6,0 1.11,-0.17 1.53,-0.52 0.42,-0.35 0.71,-0.87 0.85,-1.56zm2.61 2.87l0 -8.17 1.09 0 0 8.17 -1.09 0zm2.1 0l3.14 -8.17 1.19 0 3.33 8.17 -1.23 0 -0.95 -2.48 -3.44 0 -0.89 2.48 -1.15 0zm2.36 -3.36l2.79 0 -0.86 -2.26c-0.26,-0.69 -0.45,-1.26 -0.59,-1.71 -0.11,0.53 -0.26,1.06 -0.45,1.57l-0.89 2.4zm6.12 3.36l0 -8.17 1.08 0 0 7.21 4.03 0 0 0.96 -5.11 0zm9.21 0l0 -8.17 5.53 0 0 0.96 -4.44 0 0 2.54 3.84 0 0 0.96 -3.84 0 0 3.71 -1.09 0zm6.89 0l0 -8.17 1.08 0 0 7.21 4.03 0 0 0.96 -5.11 0zm6.07 -3.98c0,-1.35 0.37,-2.41 1.1,-3.18 0.73,-0.77 1.67,-1.15 2.82,-1.15 0.76,0 1.44,0.18 2.05,0.54 0.6,0.36 1.07,0.86 1.38,1.51 0.32,0.64 0.48,1.37 0.48,2.19 0,0.82 -0.17,1.57 -0.5,2.22 -0.34,0.65 -0.81,1.15 -1.42,1.48 -0.62,0.34 -1.28,0.5 -1.99,0.5 -0.78,0 -1.46,-0.18 -2.07,-0.55 -0.61,-0.37 -1.07,-0.88 -1.38,-1.52 -0.31,-0.64 -0.47,-1.32 -0.47,-2.04zm1.12 0.02c0,0.98 0.27,1.76 0.8,2.32 0.53,0.57 1.19,0.85 1.99,0.85 0.82,0 1.49,-0.28 2.01,-0.86 0.53,-0.57 0.79,-1.38 0.79,-2.43 0,-0.66 -0.11,-1.24 -0.34,-1.73 -0.22,-0.5 -0.55,-0.88 -0.98,-1.16 -0.44,-0.27 -0.92,-0.4 -1.46,-0.4 -0.77,0 -1.43,0.26 -1.98,0.78 -0.55,0.53 -0.83,1.4 -0.83,2.63zm8.13 3.96l0 -8.17 3.63 0c0.73,0 1.28,0.07 1.66,0.22 0.38,0.14 0.68,0.4 0.91,0.77 0.23,0.37 0.34,0.79 0.34,1.23 0,0.58 -0.19,1.07 -0.57,1.47 -0.37,0.4 -0.95,0.65 -1.74,0.76 0.29,0.13 0.51,0.27 0.66,0.4 0.31,0.29 0.61,0.66 0.89,1.09l1.42 2.23 -1.35 0 -1.09 -1.7c-0.31,-0.5 -0.57,-0.87 -0.77,-1.13 -0.21,-0.26 -0.39,-0.44 -0.56,-0.55 -0.15,-0.1 -0.32,-0.17 -0.49,-0.21 -0.12,-0.03 -0.32,-0.04 -0.6,-0.04l-1.25 0 0 3.63 -1.09 0zm1.09 -4.57l2.32 0c0.5,0 0.88,-0.05 1.16,-0.15 0.28,-0.1 0.49,-0.27 0.63,-0.49 0.15,-0.23 0.22,-0.47 0.22,-0.73 0,-0.39 -0.14,-0.71 -0.42,-0.96 -0.28,-0.25 -0.72,-0.37 -1.33,-0.37l-2.58 0 0 2.7zm7.33 4.57l0 -8.17 1.08 0 0 8.17 -1.08 0zm2.64 -2.63l1.01 -0.09c0.05,0.41 0.16,0.75 0.34,1.01 0.18,0.27 0.45,0.48 0.82,0.64 0.38,0.16 0.8,0.25 1.26,0.25 0.41,0 0.78,-0.07 1.09,-0.19 0.32,-0.12 0.56,-0.29 0.71,-0.51 0.15,-0.21 0.23,-0.44 0.23,-0.7 0,-0.25 -0.07,-0.47 -0.22,-0.67 -0.15,-0.19 -0.4,-0.35 -0.74,-0.48 -0.22,-0.08 -0.7,-0.21 -1.46,-0.39 -0.75,-0.19 -1.28,-0.35 -1.58,-0.51 -0.39,-0.21 -0.68,-0.46 -0.87,-0.77 -0.19,-0.3 -0.29,-0.64 -0.29,-1.01 0,-0.42 0.12,-0.81 0.36,-1.16 0.23,-0.36 0.57,-0.63 1.02,-0.82 0.46,-0.19 0.96,-0.28 1.51,-0.28 0.6,0 1.14,0.1 1.6,0.29 0.46,0.2 0.82,0.48 1.07,0.87 0.25,0.37 0.38,0.8 0.4,1.28l-1.04 0.08c-0.05,-0.51 -0.24,-0.9 -0.56,-1.17 -0.33,-0.26 -0.8,-0.39 -1.43,-0.39 -0.66,0 -1.14,0.12 -1.44,0.36 -0.29,0.24 -0.45,0.53 -0.45,0.87 0,0.29 0.11,0.53 0.32,0.72 0.21,0.19 0.76,0.38 1.64,0.58 0.88,0.2 1.48,0.37 1.81,0.52 0.47,0.22 0.83,0.5 1.05,0.83 0.23,0.34 0.34,0.73 0.34,1.16 0,0.44 -0.12,0.85 -0.37,1.23 -0.25,0.38 -0.61,0.68 -1.07,0.9 -0.47,0.21 -1,0.31 -1.58,0.31 -0.74,0 -1.36,-0.1 -1.86,-0.32 -0.5,-0.21 -0.89,-0.54 -1.17,-0.97 -0.29,-0.43 -0.44,-0.92 -0.45,-1.47zm10.06 2.63l0 -7.21 -2.7 0 0 -0.96 6.48 0 0 0.96 -2.69 0 0 7.21 -1.09 0z"/>
  </g>
 </g>
</svg>
