<?xml version="1.0" encoding="UTF-8"?>
<svg xmlns="http://www.w3.org/2000/svg" xmlns:xlink="http://www.w3.org/1999/xlink" width="16pt" height="16pt" viewBox="0 0 16 16" version="1.1">
<g id="surface1">
<path style=" stroke:none;fill-rule:nonzero;fill:rgb(67.058824%,3.529412%,9.019608%);fill-opacity:1;" d="M 15.886719 12.355469 C 15.839844 12.21875 15.558594 12.019531 15.03125 11.757812 C 14.890625 11.671875 14.6875 11.5625 14.425781 11.417969 C 14.160156 11.277344 13.921875 11.144531 13.710938 11.027344 C 13.496094 10.90625 13.296875 10.789062 13.109375 10.675781 C 13.078125 10.65625 12.984375 10.589844 12.828125 10.480469 C 12.667969 10.371094 12.535156 10.292969 12.425781 10.238281 C 12.320312 10.1875 12.210938 10.160156 12.105469 10.160156 C 11.957031 10.160156 11.769531 10.265625 11.546875 10.480469 C 11.320312 10.695312 11.113281 10.925781 10.925781 11.175781 C 10.738281 11.429688 10.539062 11.660156 10.328125 11.875 C 10.121094 12.089844 9.945312 12.195312 9.8125 12.195312 C 9.746094 12.195312 9.660156 12.175781 9.558594 12.140625 C 9.460938 12.101562 9.382812 12.070312 9.328125 12.042969 C 9.277344 12.015625 9.1875 11.964844 9.058594 11.886719 C 8.929688 11.804688 8.859375 11.761719 8.84375 11.753906 C 7.816406 11.1875 6.9375 10.53125 6.203125 9.796875 C 5.46875 9.0625 4.8125 8.183594 4.246094 7.15625 C 4.238281 7.140625 4.195312 7.070312 4.113281 6.941406 C 4.035156 6.8125 3.984375 6.722656 3.957031 6.671875 C 3.933594 6.617188 3.902344 6.539062 3.863281 6.441406 C 3.824219 6.339844 3.804688 6.253906 3.804688 6.1875 C 3.804688 6.054688 3.914062 5.878906 4.125 5.671875 C 4.339844 5.460938 4.574219 5.261719 4.824219 5.074219 C 5.074219 4.886719 5.308594 4.679688 5.523438 4.453125 C 5.734375 4.230469 5.839844 4.042969 5.839844 3.890625 C 5.839844 3.785156 5.816406 3.679688 5.761719 3.570312 C 5.710938 3.460938 5.628906 3.328125 5.523438 3.171875 C 5.414062 3.015625 5.347656 2.921875 5.324219 2.890625 C 5.210938 2.703125 5.097656 2.503906 4.976562 2.289062 C 4.855469 2.074219 4.726562 1.835938 4.582031 1.574219 C 4.441406 1.308594 4.328125 1.105469 4.246094 0.964844 C 3.980469 0.441406 3.785156 0.15625 3.648438 0.109375 C 3.59375 0.0898438 3.515625 0.078125 3.410156 0.078125 C 3.207031 0.078125 2.945312 0.113281 2.617188 0.1875 C 2.292969 0.265625 2.035156 0.34375 1.847656 0.425781 C 1.472656 0.585938 1.074219 1.042969 0.65625 1.800781 C 0.273438 2.503906 0.078125 3.203125 0.078125 3.894531 C 0.078125 4.09375 0.09375 4.292969 0.121094 4.484375 C 0.144531 4.675781 0.195312 4.890625 0.261719 5.128906 C 0.328125 5.371094 0.382812 5.546875 0.425781 5.664062 C 0.464844 5.78125 0.542969 5.988281 0.65625 6.289062 C 0.765625 6.589844 0.832031 6.769531 0.859375 6.839844 C 1.121094 7.574219 1.433594 8.230469 1.792969 8.804688 C 2.382812 9.765625 3.191406 10.757812 4.214844 11.78125 C 5.238281 12.804688 6.230469 13.613281 7.191406 14.207031 C 7.769531 14.566406 8.425781 14.875 9.160156 15.140625 C 9.226562 15.164062 9.410156 15.230469 9.710938 15.34375 C 10.011719 15.457031 10.21875 15.53125 10.335938 15.574219 C 10.453125 15.617188 10.628906 15.671875 10.867188 15.738281 C 11.109375 15.804688 11.324219 15.851562 11.515625 15.878906 C 11.707031 15.902344 11.902344 15.917969 12.105469 15.917969 C 12.796875 15.917969 13.492188 15.726562 14.199219 15.34375 C 14.957031 14.925781 15.414062 14.527344 15.570312 14.152344 C 15.65625 13.964844 15.734375 13.707031 15.808594 13.378906 C 15.882812 13.054688 15.921875 12.789062 15.921875 12.585938 C 15.921875 12.484375 15.910156 12.40625 15.886719 12.355469 Z M 15.886719 12.355469 "/>
</g>
</svg>
